# xmcd
#
# Track frame offsets:
# 150
# 13607
# 26950
# 41264
# 56741
# 71936
# 86246
# 100749
# 113861
# 127122
# 140573
# 153980
# 167618
# 182695
# 195925
# 210180
# 225156
# 238325
# 252435
# 267807
# 283270
# 297197
# 310462
# 326042
# 340081
#
# Disc length: 4731 seconds
#
#
# Revision: 0
# Processed by: cddbd v1.5.1PL2 Copyright (c) Steve Scherf et al.
# Submitted via: FreeRIP 2.944 
#
DISCID=71127919
DTITLE=Bessie Smith - St. Louis Blues
DYEAR=1900
DGENRE=Blues
TTITLE0=Alexander's Ragtime Band
TTITLE1=Nobody Knows You When You're Down And Out
TTITLE2=The St. Louis Blues (w. Louis Armstrong)
TTITLE3=Careless Love Blues (w. Louis Armstrong)
TTITLE4=I Ain't Goin' To Play Second Fiddle (w.L.Armstrong)
TTITLE5=I An't Got Nobody
TTITLE6=The Gin House Blues
TTITLE7=Lost Your Head Blues
TTITLE8=After You've Gone
TTITLE9=A Good Man Is Hard To Find
TTITLE10=Dyin' By The Hour
TTITLE11=Empty Bed Blues - part 1
TTITLE12=Empty Bed Blues - part 2
TTITLE13=Blue Spirit Blues
TTITLE14=I Don't Cry Baby
TTITLE15=Baby Have Pity On Me
TTITLE16=On Revivial Day
TTITLE17=Black Mountain Blues
TTITLE18=Safety Mama
TTITLE19=Down Hearted Blues
TTITLE20=Gulf Coast Blues
TTITLE21=Baby Won't You Please Come Home
TTITLE22=T'Ain't Nobody's Business If I Do
TTITLE23=Bleeding Hearted Blues
TTITLE24=Midnight Blues
EXTD=CD (with DVD)
EXTT0=
EXTT1=
EXTT2=
EXTT3=
EXTT4=
EXTT5=
EXTT6=
EXTT7=
EXTT8=
EXTT9=
EXTT10=
EXTT11=
EXTT12=
EXTT13=
EXTT14=
EXTT15=
EXTT16=
EXTT17=
EXTT18=
EXTT19=
EXTT20=
EXTT21=
EXTT22=
EXTT23=
EXTT24=
PLAYORDER=
